<?xml version="1.0" standalone="no"?>
<!DOCTYPE svg PUBLIC "-//W3C//DTD SVG 20010904//EN"
 "http://www.w3.org/TR/2001/REC-SVG-20010904/DTD/svg10.dtd">
<svg version="1.0" xmlns="http://www.w3.org/2000/svg"
 width="712.000000pt" height="459.000000pt" viewBox="0 0 712.000000 459.000000"
 preserveAspectRatio="xMidYMid meet">
<metadata>
Created by potrace 1.16, written by Peter Selinger 2001-2019
</metadata>
<g transform="translate(0.000000,459.000000) scale(0.100000,-0.100000)"
fill="#000000" stroke="none">
<path d="M1429 4570 c-132 -24 -209 -50 -322 -108 -265 -139 -450 -380 -524
-684 -17 -68 -18 -169 -18 -1483 0 -1499 -2 -1429 47 -1585 119 -376 457 -650
865 -699 65 -8 757 -11 2381 -11 2483 1 2390 -1 2557 55 334 112 573 366 679
720 21 69 21 83 24 1487 2 1376 2 1420 -17 1507 -84 383 -358 671 -747 783
-73 20 -105 23 -399 27 -176 3 -1242 6 -2370 7 -1966 2 -2054 2 -2156 -16z
m2266 -1655 l0 -450 445 3 445 2 0 -185 0 -185 -442 0 -443 0 0 -437 0 -438
-185 0 -185 0 2 440 3 440 -442 -3 -442 -2 -3 185 -3 185 445 -2 445 -3 -3
453 -2 452 182 -2 183 -3 0 -450z"/>
</g>
</svg>
